PathFileType	4	(X/Y/Z)	/Users/itak/Documents/Research/Walk-IL/dataset/trc/00084_00006.trc
DataRate	CameraRate	NumFrames	NumMarkers	Units	OrigDataRate	OrigDataStartFrame	OrigNumFrames
100.000000	100.000000	4	54	mm	100.000000	60	484
Frame#	Time	RPSI			LPSI			L3			STRN			T10			C7			CLAV			RBAK			LBAK			LSHO			LUPA			LAEL			LAOL			LWTS			LWPS			LFRA			LIFD			LHPS			LHTS			RSHO			RUPA			RAEL			RAOL			RWTS			RWPS			RFRA			RIFD			RHTS			RHPS			RBHD			LFHD			RFHD			LBHD			LHIP			RHIP			RASI			LASI			LKNE			LTHI			LANK			LTIP			LTOE			LMT1			LMT5			LHEE			RKNE			RTHI			RANK			RTIP			RTOE			RMT1			RMT5			RHEE			*53			
		X1	Y1	Z1	X2	Y2	Z2	X3	Y3	Z3	X4	Y4	Z4	X5	Y5	Z5	X6	Y6	Z6	X7	Y7	Z7	X8	Y8	Z8	X9	Y9	Z9	X10	Y10	Z10	X11	Y11	Z11	X12	Y12	Z12	X13	Y13	Z13	X14	Y14	Z14	X15	Y15	Z15	X16	Y16	Z16	X17	Y17	Z17	X18	Y18	Z18	X19	Y19	Z19	X20	Y20	Z20	X21	Y21	Z21	X22	Y22	Z22	X23	Y23	Z23	X24	Y24	Z24	X25	Y25	Z25	X26	Y26	Z26	X27	Y27	Z27	X28	Y28	Z28	X29	Y29	Z29	X30	Y30	Z30	X31	Y31	Z31	X32	Y32	Z32	X33	Y33	Z33	X34	Y34	Z34	X35	Y35	Z35	X36	Y36	Z36	X37	Y37	Z37	X38	Y38	Z38	X39	Y39	Z39	X40	Y40	Z40	X41	Y41	Z41	X42	Y42	Z42	X43	Y43	Z43	X44	Y44	Z44	X45	Y45	Z45	X46	Y46	Z46	X47	Y47	Z47	X48	Y48	Z48	X49	Y49	Z49	X50	Y50	Z50	X51	Y51	Z51	X52	Y52	Z52	X53	Y53	Z53	X54	Y54	Z54	

61	0.6	-1389.163940429688	1036.292846679688	486.0021362304688	-1398.163818359375	1028.895141601562	310.66162109375	-1390.069458007812	1087.987548828125	390.4931640625	-1142.17333984375	1284.79638671875	399.280029296875	-1410.478393554688	1222.485229492188	383.51318359375	-1348.113525390625	1488.346435546875	383.2936706542969	-1170.750244140625	1399.773681640625	396.0994567871094	-1415.749267578125	1350.37060546875	455.1042175292969	-1364.426025390625	1451.638916015625	280.8919372558594	-1256.101928710938	1454.209106445312	214.7022705078125	-1267.505493164062	1326.1552734375	138.0322113037109	-1247.546508789062	1110.876342773438	121.9751892089844	-1316.3720703125	1097.165893554688	202.7750549316406	-1162.270141601562	870.8673706054688	191.2285308837891	-1216.8984375	859.8399658203125	128.208984375	-1227.283447265625	1001.723815917969	116.3601760864258	-1156.813354492188	684.4302368164062	212.9586334228516	-1185.53125	779.3698120117188	135.3005523681641	-1140.025024414062	788.1182861328125	188.8756713867188	-1294.507568359375	1449.853881835938	562.875732421875	-1308.41162109375	1379.957275390625	624.4409790039062	-1337.359985351562	1114.843872070312	651.4612426757812	-1315.473266601562	1093.145751953125	556.49658203125	-1189.819580078125	864.1922607421875	621.2091674804688	-1263.15966796875	848.4765625	668.3817138671875	-1324.153930664062	1035.054077148438	658.7867431640625	-1185.145629882812	677.3729248046875	602.2344360351562	-1164.418212890625	764.3375854492188	622.328857421875	-1223.005981445312	760.5216064453125	673.1969604492188	-1317.31884765625	1664.347412109375	328.612548828125	-1148.715576171875	1701.499633789062	457.8971557617188	-1143.447875976562	1704.535034179688	332.3793029785156	-1313.825805664062	1653.993041992188	466.2602844238281	-1293.813354492188	962.2335205078125	223.3096466064453	-1321.524536132812	963.8192749023438	561.9842529296875	-1197.777465820312	979.973388671875	540.6317749023438	-1180.126220703125	972.7749633789062	270.9224548339844	-1228.572143554688	500.2695617675781	287.1351013183594	-1258.594482421875	639.98583984375	247.4428253173828	-1367.7421875	52.31350326538086	290.4468688964844	-1305.480590820312	263.1375427246094	275.4231872558594	-1160.8115234375	46.217529296875	287.5243530273438	-1209.021240234375	44.49285125732422	343.6817932128906	-1266.024536132812	45.38915252685547	248.2580413818359	-1417.234497070312	51.29258346557617	367.4287414550781	-1239.453491210938	519.2950439453125	540.6719970703125	-1237.330932617188	790.6245727539062	570.5213623046875	-1355.264038085938	46.14646148681641	536.2056884765625	-1265.340942382812	397.1903076171875	545.34912109375	-1135.947021484375	43.54490280151367	510.72021484375	-1195.487670898438	49.52410125732422	467.1328430175781	-1232.414794921875	49.14196395874023	557.738525390625	-1399	48.45882034301758	475.8786010742188	nan	nan	nan	
62	0.61	-1389.007690429688	1036.318115234375	485.9884338378906	-1397.888671875	1028.893310546875	310.6963195800781	-1389.832153320312	1088.031005859375	390.5338134765625	-1142.084106445312	1284.788330078125	399.252197265625	-1410.293212890625	1222.510009765625	383.5224304199219	-1347.858520507812	1488.3173828125	383.3236389160156	-1170.524047851562	1399.756469726562	396.1081848144531	-1415.529418945312	1350.372314453125	455.0197143554688	-1364.205688476562	1451.642333984375	280.8842468261719	-1255.862915039062	1454.191528320312	214.7049407958984	-1267.438110351562	1326.214111328125	137.9516906738281	-1247.869873046875	1110.93359375	121.6918258666992	-1316.61328125	1097.272338867188	202.5765991210938	-1163.431518554688	870.4574584960938	190.3764953613281	-1218.062866210938	859.81298828125	127.3007888793945	-1227.936889648438	1001.755554199219	115.8453598022461	-1159.059204101562	683.8118286132812	211.3984985351562	-1187.035766601562	779.1942138671875	134.1597595214844	-1141.438842773438	787.5608520507812	187.7448425292969	-1294.275634765625	1449.857177734375	562.8908081054688	-1308.2119140625	1380.01171875	624.491455078125	-1337.468505859375	1114.963134765625	651.5519409179688	-1315.450073242188	1093.177856445312	556.6256713867188	-1190.247436523438	864.0972900390625	621.6641235351562	-1263.703247070312	848.5240478515625	668.799072265625	-1324.323364257812	1035.206665039062	658.9251708984375	-1185.94970703125	677.226806640625	602.9357299804688	-1165.075317382812	764.1306762695312	622.932861328125	-1223.6884765625	760.505615234375	673.7882080078125	-1316.904907226562	1664.416137695312	328.4931030273438	-1148.287109375	1701.418212890625	457.8671264648438	-1142.93994140625	1704.393798828125	332.3407897949219	-1313.507690429688	1654.068359375	466.2257385253906	-1293.685302734375	962.2158203125	223.2539672851562	-1321.281860351562	963.808837890625	561.99169921875	-1197.560668945312	980.0106201171875	540.6925659179688	-1179.887451171875	972.7042846679688	271.004150390625	-1228.504516601562	500.23291015625	287.1309204101562	-1258.245727539062	639.8790893554688	247.6051025390625	-1367.741577148438	52.3085823059082	290.4508666992188	-1305.491333007812	263.1337585449219	275.4066772460938	-1160.816162109375	46.22024154663086	287.5119323730469	-1209.019897460938	44.49113464355469	343.6740417480469	-1266.021118164062	45.37513732910156	248.2604370117188	-1417.256469726562	51.29521942138672	367.4027099609375	-1239.291870117188	519.2803955078125	540.6851806640625	-1237.227172851562	790.5398559570312	570.5852661132812	-1355.262817382812	46.1539421081543	536.2032470703125	-1265.283447265625	397.1831359863281	545.3568725585938	-1135.945556640625	43.55384826660156	510.7102661132812	-1195.49658203125	49.52053451538086	467.1219787597656	-1232.399169921875	49.17743682861328	557.7220458984375	-1398.987426757812	48.46850967407227	475.8702087402344	nan	nan	nan	
63	0.62	-1388.865112304688	1036.349365234375	485.9675598144531	-1397.612548828125	1028.899047851562	310.7318725585938	-1389.577880859375	1088.077758789062	390.5963439941406	-1141.990356445312	1284.7822265625	399.2098083496094	-1410.0927734375	1222.52783203125	383.5263671875	-1347.58837890625	1488.282592773438	383.3652954101562	-1170.274047851562	1399.737915039062	396.1189880371094	-1415.32421875	1350.368530273438	454.9510498046875	-1363.993286132812	1451.652099609375	280.8855895996094	-1255.630004882812	1454.188232421875	214.7164764404297	-1267.382934570312	1326.286865234375	137.8669281005859	-1248.183227539062	1111.00830078125	121.4098892211914	-1316.837646484375	1097.388793945312	202.3824462890625	-1164.522583007812	870.102294921875	189.5080718994141	-1219.171264648438	859.8117065429688	126.4022979736328	-1228.563720703125	1001.811279296875	115.3333892822266	-1161.020874023438	683.310791015625	209.9210510253906	-1188.48583984375	779.058349609375	133.0193176269531	-1142.791870117188	787.0401000976562	186.6233673095703	-1294.054077148438	1449.8525390625	562.9022216796875	-1308.023071289062	1380.050659179688	624.5391845703125	-1337.585693359375	1115.078491210938	651.644287109375	-1315.43798828125	1093.214233398438	556.7656860351562	-1190.679809570312	864.00048828125	622.13037109375	-1264.224243164062	848.5620727539062	669.216796875	-1324.50634765625	1035.36572265625	659.100830078125	-1186.753295898438	677.0761108398438	603.6152954101562	-1165.71337890625	763.932861328125	623.5403442382812	-1224.341918945312	760.4808959960938	674.36572265625	-1316.482299804688	1664.491088867188	328.3741149902344	-1147.817260742188	1701.325439453125	457.8640747070312	-1142.450317382812	1704.249633789062	332.3005065917969	-1313.161254882812	1654.162109375	466.2157897949219	-1293.5595703125	962.202880859375	223.1930694580078	-1321.052978515625	963.8026733398438	562.0037231445312	-1197.339233398438	980.0463256835938	540.7647705078125	-1179.641845703125	972.6214599609375	271.1034851074219	-1228.458374023438	500.1991271972656	287.1229858398438	-1257.865112304688	639.7618408203125	247.7968444824219	-1367.74169921875	52.30025482177734	290.454345703125	-1305.49853515625	263.1260986328125	275.3959350585938	-1160.821166992188	46.22230529785156	287.5015869140625	-1209.007202148438	44.48315811157227	343.6721801757812	-1266.024536132812	45.36333084106445	248.2546539306641	-1417.279541015625	51.29405212402344	367.3741149902344	-1239.135131835938	519.2642822265625	540.701171875	-1237.136962890625	790.4432983398438	570.6889038085938	-1355.261474609375	46.15957641601562	536.2020263671875	-1265.226684570312	397.17529296875	545.3675537109375	-1135.943603515625	43.56662368774414	510.7012023925781	-1195.506713867188	49.51530456542969	467.1098937988281	-1232.382690429688	49.21765518188477	557.706298828125	-1398.975952148438	48.4797477722168	475.8611145019531	nan	nan	nan	
64	0.63	-1388.73681640625	1036.384155273438	485.9446411132812	-1397.337768554688	1028.911499023438	310.7675170898438	-1389.3134765625	1088.123657226562	390.6793518066406	-1141.884887695312	1284.776123046875	399.1563415527344	-1409.878662109375	1222.538330078125	383.5217590332031	-1347.303833007812	1488.245483398438	383.4172668457031	-1170.005615234375	1399.719116210938	396.1322937011719	-1415.128540039062	1350.356689453125	454.89892578125	-1363.7861328125	1451.668579101562	280.8970947265625	-1255.401733398438	1454.198364257812	214.7376556396484	-1267.338500976562	1326.371337890625	137.7795257568359	-1248.478271484375	1111.099609375	121.1327667236328	-1317.047485351562	1097.514282226562	202.189453125	-1165.531860351562	869.7952270507812	188.6254577636719	-1220.219604492188	859.832763671875	125.5162048339844	-1229.160034179688	1001.8876953125	114.8249969482422	-1162.661254882812	682.8939208984375	208.5586242675781	-1189.871337890625	778.9591674804688	131.8850860595703	-1144.08740234375	786.5612182617188	185.5196533203125	-1293.842041015625	1449.83984375	562.90869140625	-1307.845825195312	1380.072631835938	624.5803833007812	-1337.711059570312	1115.1884765625	651.7401123046875	-1315.439208984375	1093.24853515625	556.9168090820312	-1191.135009765625	863.893798828125	622.6187744140625	-1264.7197265625	848.5847778320312	669.62890625	-1324.703002929688	1035.523071289062	659.3119506835938	-1187.547729492188	676.9166259765625	604.272705078125	-1166.328002929688	763.7378540039062	624.1458129882812	-1224.965942382812	760.4486083984375	674.9248657226562	-1316.05615234375	1664.568481445312	328.2703247070312	-1147.314208984375	1701.223754882812	457.888427734375	-1141.986572265625	1704.102172851562	332.2615966796875	-1312.780395507812	1654.272583007812	466.2275695800781	-1293.425659179688	962.19287109375	223.1347351074219	-1320.843872070312	963.8020629882812	562.0226440429688	-1197.113037109375	980.0772094726562	540.8497314453125	-1179.38818359375	972.5271606445312	271.2230224609375	-1228.4287109375	500.1676635742188	287.1115112304688	-1257.507080078125	639.6530151367188	247.9812622070312	-1367.7431640625	52.28878021240234	290.4556884765625	-1305.501953125	263.114013671875	275.3885803222656	-1160.827026367188	46.22390747070312	287.4925231933594	-1208.990478515625	44.47290802001953	343.6725158691406	-1266.037719726562	45.35496139526367	248.2381439208984	-1417.299194335938	51.28359985351562	367.3486022949219	-1238.989868164062	519.248046875	540.7203369140625	-1237.054809570312	790.33642578125	570.8217163085938	-1355.260375976562	46.16323089599609	536.20166015625	-1265.1728515625	397.1652221679688	545.380859375	-1135.94091796875	43.58420181274414	510.6945495605469	-1195.51708984375	49.50923538208008	467.097412109375	-1232.36279296875	49.2674560546875	557.6905517578125	-1398.965698242188	48.49157333374023	475.8512878417969	nan	nan	nan	
